<?xml version="1.0" encoding="UTF-8"?>
<!DOCTYPE svg PUBLIC "-//W3C//DTD SVG 1.1//EN" "http://www.w3.org/Graphics/SVG/1.1/DTD/svg11.dtd">
<!-- Creator: CorelDRAW 2018 (64 Bit Versão de avaliação) -->
<svg xmlns="http://www.w3.org/2000/svg" xml:space="preserve" width="100mm" height="36.0465mm" version="1.1" style="shape-rendering:geometricPrecision; text-rendering:geometricPrecision; image-rendering:optimizeQuality; fill-rule:evenodd; clip-rule:evenodd"
viewBox="0 0 5466.68 1970.54"
 xmlns:xlink="http://www.w3.org/1999/xlink">
 <defs>
  <style type="text/css">
   <![CDATA[
    .fil0 {fill:#ED3237}
    .fil1 {fill:#354B9C}
   ]]>
  </style>
 </defs>
 <g id="Camada_x0020_1">
  <metadata id="CorelCorpID_0Corel-Layer"/>
  <g id="_1627622402480">
   <path class="fil0" d="M1482.87 1286.4l-254.56 0 145.75 -203.76 108.81 203.76zm-177.95 -901.11l254.56 0 -145.74 203.76 -108.83 -203.76zm2914.69 -93.65l1247.07 0 -211.49 1090.96 -1118.68 0 1.48 -6.2c165.5,-17.55 311.36,-100.95 406.21,-238.35 108.32,-165.41 140.77,-381.55 60.14,-565.35 -72.12,-152.95 -218.37,-251.57 -386.05,-273.96l1.32 -7.1z"/>
   <path class="fil1" d="M284 237.96l237.87 0 203 -134.88 66.73 134.88 160.77 0 -117.74 -237.96 -192.48 0 -358.14 237.96zm3170.53 1343.91l-63.1 0 -62.32 319.19c108.29,0 260.47,0.87 261.08,-182.47 0.28,-88.57 -46.93,-136.72 -135.66,-136.72zm-199.66 377.39l85.27 -435.59c129.39,0 315.68,-19.94 315,189.4 -0.49,150.19 -99.79,246.19 -249.76,246.19l-150.51 0zm389.17 0l85.87 -435.59 224.95 0 -12.44 61.27 -161.24 0 -23.68 124.36 160.62 0 -11.34 59.44 -160.93 0 -25.53 128.03 160.31 0 -11.86 62.5 -224.73 0zm299.74 -139.07l66.79 0c-0.58,181.28 245.05,44.06 84.01,-55.04 -54.66,-33.64 -106.92,-55.2 -106.69,-127.43 0.55,-163.15 269.38,-165.93 248.11,2.97l-64.94 0c0.46,-137.45 -227.25,-39.55 -41.67,68.82 167.83,98 69.36,258.95 -53.64,258.95 -96.49,0 -132.24,-57.02 -131.95,-148.26zm281.77 139.07l85.99 -435.59 63.7 0 -85.87 435.59 -63.82 0zm505.47 -159.3l-198.6 0 11.3 -54.51 265.89 0c-36.01,291.81 -446.39,301.54 -445.46,19.6 0.93,-280.16 381.15,-344.31 442.66,-98.03l-68.01 0c-47.67,-160.11 -308.39,-114.17 -309.09,97.51 -0.63,191.68 243.56,188.51 301.32,35.43zm67.45 159.3l85.26 -435.59 87.63 0 122.94 349.09 68.1 -349.09 63.72 0 -84.67 435.59 -83.42 0 -125.9 -359.64 -69.93 359.64 -63.73 0zm-3421.28 -933.41l-255.18 356.73 -236.99 0 390.86 -546.44 -290.8 -544.51 236.99 0 189.5 354.83 253.81 -354.83 236.99 0 -389.49 544.51 291.85 546.44 -237.01 0 -190.53 -356.73zm-376.48 59.61c-133.64,248.89 -397.82,339.56 -643.08,278.17 -570.06,-142.68 -432.81,-1081.66 228.46,-1068.41 398.88,7.99 507.4,351.24 476.75,622.46l-829.22 0c33.01,303.76 392.16,321.1 535.94,105.88 9.32,-14.39 17.79,-29.01 26.29,-43.83l251.54 0 -46.69 105.73zm-734.35 -371.3l555.6 0c-46.25,-311.62 -430.5,-281.39 -555.6,0zm2660.28 618.25c-91.47,-42.3 -172.65,-118.51 -218.57,-208.07 -257.21,417.98 -988.64,319.81 -974.37,-258.69 14.73,-597.63 770.87,-765.77 1013.22,-317.88 52.9,-105.8 211.28,-212.56 338.8,-241.21 168.28,-37.82 348.02,-1.48 466,129.63l85.87 -436.18 223.96 0 -84.29 431.22c-15.5,27.73 -211.07,170.31 -198.38,477.44 4.22,82.92 24.39,159.21 60.9,226.07l-48.45 247.84 -224.35 0 17.89 -89.06c-126.7,94.72 -315.91,99.95 -458.22,38.88zm-640.21 -822.05c-401.2,14.07 -445.73,673.2 -30.14,653.16 382.71,-18.46 461.88,-658.08 30.14,-653.16zm1202.96 272.59c-21.65,-388.22 -525.69,-345.29 -601.4,0.72 -105.26,480.97 591.44,534.84 601.4,-0.72zm641.86 -272.59c-401.18,14.07 -445.73,673.2 -30.14,653.16 382.69,-18.46 461.9,-658.08 30.14,-653.16z"/>
  </g>
 </g>
</svg>
